<?xml version="1.0" encoding="utf-8"?>
<!-- Generator: Adobe Illustrator 19.2.0, SVG Export Plug-In . SVG Version: 6.00 Build 0)  -->
<svg version="1.1" id="Layer_1" xmlns="http://www.w3.org/2000/svg" xmlns:xlink="http://www.w3.org/1999/xlink" x="0px" y="0px"
	 viewBox="0 0 363.1 118.3" style="enable-background:new 0 0 363.1 118.3;" xml:space="preserve">
<style type="text/css">
	.st0{fill:#5FA0D6;}
	.st1{fill:#323F6B;}
	.st2{fill:#BCBCBC;}
	.st3{opacity:0.81;fill:url(#LightBeam_2_);enable-background:new    ;}
</style>
<g>
	<g id="Point_1_">
		<path class="st0" d="M265.3,52.8h10c1.8,0,3.4,0.2,4.8,0.5c1.4,0.3,2.6,0.8,3.6,1.6c1,0.7,1.8,1.6,2.3,2.8
			c0.5,1.1,0.8,2.5,0.8,4.1c0,1.7-0.3,3.1-1,4.3c-0.6,1.2-1.5,2.1-2.6,2.8c-1.1,0.7-2.4,1.2-3.8,1.5c-1.4,0.3-3,0.5-4.6,0.5h-4.2
			v12.7h-5.5L265.3,52.8L265.3,52.8z M274.6,66.2c0.9,0,1.8-0.1,2.6-0.2c0.8-0.1,1.5-0.4,2.2-0.7c0.6-0.3,1.1-0.8,1.5-1.4
			c0.4-0.6,0.6-1.3,0.6-2.3c0-0.9-0.2-1.6-0.6-2.2s-0.9-1-1.5-1.3c-0.6-0.3-1.3-0.5-2.1-0.6c-0.8-0.1-1.6-0.2-2.5-0.2h-4v8.8
			L274.6,66.2L274.6,66.2z"/>
		<path class="st0" d="M287.5,73c0-1.7,0.3-3.1,0.9-4.5c0.6-1.3,1.4-2.5,2.4-3.5c1-1,2.2-1.7,3.6-2.2c1.4-0.5,2.9-0.8,4.4-0.8
			s3,0.3,4.4,0.8c1.4,0.5,2.6,1.3,3.6,2.2c1,1,1.8,2.1,2.4,3.5c0.6,1.3,0.9,2.8,0.9,4.5s-0.3,3.2-0.9,4.5c-0.6,1.4-1.4,2.5-2.4,3.5
			c-1,1-2.2,1.7-3.6,2.3s-2.9,0.8-4.4,0.8c-1.6,0-3-0.3-4.4-0.8s-2.6-1.3-3.6-2.3c-1-1-1.8-2.1-2.4-3.5
			C287.8,76.2,287.5,74.7,287.5,73z M292.8,73c0,0.8,0.1,1.6,0.4,2.4c0.2,0.8,0.6,1.5,1.1,2.2c0.5,0.6,1.1,1.2,1.9,1.6
			c0.8,0.4,1.7,0.6,2.7,0.6c1,0,1.9-0.2,2.7-0.6c0.8-0.4,1.4-0.9,1.9-1.6c0.5-0.6,0.9-1.4,1.1-2.2c0.2-0.8,0.4-1.6,0.4-2.4
			s-0.1-1.6-0.4-2.4c-0.2-0.8-0.6-1.5-1.1-2.1c-0.5-0.6-1.1-1.2-1.9-1.5c-0.8-0.4-1.7-0.6-2.7-0.6c-1,0-1.9,0.2-2.7,0.6
			c-0.8,0.4-1.4,0.9-1.9,1.5c-0.5,0.6-0.9,1.4-1.1,2.1C292.9,71.4,292.8,72.2,292.8,73z"/>
		<path class="st0" d="M314.6,55.6c0-0.8,0.3-1.6,0.9-2.2c0.6-0.6,1.4-0.9,2.4-0.9c1,0,1.8,0.3,2.4,0.9c0.7,0.6,1,1.3,1,2.2
			c0,0.9-0.3,1.6-1,2.2c-0.7,0.6-1.5,0.9-2.4,0.9c-1,0-1.7-0.3-2.4-0.9C314.9,57.2,314.6,56.4,314.6,55.6z M315.3,62.7h5.2v20.9
			h-5.2V62.7z"/>
		<path class="st0" d="M326.8,62.7h5V66h0.1c0.5-1,1.3-2,2.4-2.8c1.1-0.8,2.5-1.2,4.1-1.2c1.4,0,2.5,0.2,3.5,0.7
			c1,0.5,1.8,1.1,2.4,1.9s1.1,1.7,1.4,2.7c0.3,1,0.4,2.1,0.4,3.1v13h-5.2V72c0-0.6,0-1.2-0.1-1.9c-0.1-0.7-0.3-1.3-0.6-1.8
			c-0.3-0.5-0.7-1-1.2-1.3c-0.5-0.3-1.2-0.5-2-0.5s-1.6,0.2-2.2,0.5s-1.1,0.8-1.5,1.3c-0.4,0.5-0.7,1.1-0.9,1.8
			c-0.2,0.7-0.3,1.4-0.3,2.1v11.5h-5.2L326.8,62.7L326.8,62.7z"/>
		<path class="st0" d="M349.1,66.8v-4.2h3.6v-6h5.1v6h5.2v4.2h-5.2v9.7c0,0.9,0.2,1.7,0.5,2.3s1.1,0.9,2.2,0.9c0.3,0,0.7,0,1.1-0.1
			c0.4-0.1,0.8-0.2,1.1-0.3l0.2,4.1c-0.5,0.2-1,0.3-1.7,0.4c-0.6,0.1-1.2,0.2-1.8,0.2c-1.4,0-2.5-0.2-3.4-0.6
			c-0.9-0.4-1.6-0.9-2.1-1.6c-0.5-0.7-0.9-1.5-1-2.3c-0.2-0.9-0.3-1.8-0.3-2.8v-9.7L349.1,66.8L349.1,66.8z"/>
	</g>
	<g id="Advantage_1_">
		<path class="st1" d="M64.7,52.8h3l12.9,30.8h-3.2l-3.3-8.2H57.8l-3.5,8.2h-3L64.7,52.8z M66.1,55.9l-7.2,16.9H73L66.1,55.9z"/>
		<path class="st1" d="M101.9,80L101.9,80c-0.5,0.7-1,1.3-1.6,1.8c-0.6,0.5-1.3,0.9-2,1.3c-0.7,0.3-1.5,0.6-2.2,0.7
			C95.3,84,94.5,84,93.7,84c-1.5,0-3-0.3-4.3-0.8c-1.3-0.5-2.4-1.3-3.3-2.2c-0.9-0.9-1.6-2.1-2.2-3.3c-0.5-1.3-0.8-2.7-0.8-4.2
			c0-1.5,0.3-2.9,0.8-4.2c0.5-1.3,1.2-2.4,2.2-3.3c0.9-0.9,2-1.7,3.3-2.2c1.3-0.5,2.7-0.8,4.3-0.8c0.8,0,1.5,0.1,2.3,0.2
			s1.5,0.4,2.2,0.7c0.7,0.3,1.4,0.8,2,1.3c0.6,0.5,1.1,1.1,1.5,1.8h0.1V50.7h2.6v32.8h-2.6V80z M102.1,73.5c0-1.1-0.2-2.2-0.7-3.2
			c-0.4-1-1-1.9-1.8-2.6c-0.8-0.7-1.6-1.3-2.7-1.8s-2.1-0.7-3.3-0.7c-1.2,0-2.3,0.2-3.3,0.7s-1.8,1-2.5,1.8
			c-0.7,0.7-1.2,1.6-1.6,2.6s-0.5,2.1-0.5,3.2s0.2,2.2,0.5,3.2c0.4,1,0.9,1.9,1.6,2.6c0.7,0.7,1.5,1.3,2.5,1.8s2.1,0.7,3.3,0.7
			c1.2,0,2.3-0.2,3.3-0.7s1.9-1,2.7-1.8c0.8-0.7,1.3-1.6,1.8-2.6C101.9,75.7,102.1,74.6,102.1,73.5z"/>
		<path class="st1" d="M108,63.4h3l6.7,17.2l6.5-17.2h2.6l-7.9,20.1h-2.7L108,63.4z"/>
		<path class="st1" d="M146.6,75.1c0,1,0,1.9,0,2.6c0,0.8,0,1.5,0.1,2.2c0,0.7,0.1,1.3,0.1,1.9s0.1,1.2,0.2,1.7h-2.4
			c-0.2-1-0.3-2.1-0.3-3.3h-0.1c-0.8,1.3-1.7,2.3-2.8,2.9c-1.1,0.6-2.5,0.9-4.2,0.9c-0.9,0-1.7-0.1-2.6-0.3c-0.8-0.2-1.6-0.6-2.3-1
			c-0.7-0.5-1.2-1.1-1.6-1.8c-0.4-0.8-0.6-1.7-0.6-2.7c0-1.5,0.4-2.8,1.2-3.6c0.8-0.9,1.7-1.6,2.9-2c1.1-0.4,2.4-0.7,3.6-0.9
			s2.4-0.2,3.4-0.2h3v-1.2c0-1.7-0.5-3-1.6-3.7c-1.1-0.8-2.4-1.1-4-1.1c-2.3,0-4.4,0.8-6.1,2.3l-1.5-1.8c1-0.9,2.1-1.6,3.6-2.1
			c1.4-0.5,2.8-0.7,4.1-0.7c2.4,0,4.4,0.6,5.8,1.7c1.4,1.1,2.2,3,2.2,5.5L146.6,75.1L146.6,75.1z M141.4,73.4
			c-1.1,0-2.2,0.1-3.2,0.2c-1,0.1-2,0.4-2.8,0.7c-0.8,0.3-1.5,0.8-2,1.4c-0.5,0.6-0.7,1.3-0.7,2.2c0,0.6,0.1,1.2,0.4,1.6
			c0.3,0.5,0.6,0.9,1.1,1.2c0.4,0.3,0.9,0.5,1.5,0.7c0.5,0.2,1.1,0.2,1.6,0.2c1.4,0,2.5-0.2,3.4-0.6c0.9-0.4,1.6-0.9,2.1-1.6
			c0.5-0.7,0.9-1.4,1.1-2.2c0.2-0.8,0.3-1.7,0.3-2.5v-1.3L141.4,73.4L141.4,73.4z"/>
		<path class="st1" d="M153.5,69.1c0-0.4,0-0.8,0-1.4c0-0.5-0.1-1.1-0.1-1.6c0-0.6,0-1.1-0.1-1.5s0-0.8,0-1.1h2.6
			c0,0.8,0.1,1.5,0.1,2.2c0,0.7,0.1,1.1,0.1,1.3h0.1c0.5-1.1,1.4-2,2.6-2.8c1.2-0.8,2.6-1.2,4.3-1.2c1.6,0,2.8,0.2,3.8,0.7
			c1,0.5,1.8,1.1,2.3,1.9c0.6,0.8,1,1.7,1.2,2.8s0.3,2.1,0.3,3.2v11.9h-2.6V71.7c0-0.8-0.1-1.6-0.2-2.4c-0.1-0.8-0.4-1.5-0.8-2.1
			c-0.4-0.6-0.9-1.1-1.5-1.5c-0.7-0.4-1.5-0.5-2.5-0.5c-1,0-1.9,0.2-2.7,0.5s-1.6,0.8-2.2,1.5c-0.6,0.7-1.1,1.5-1.5,2.6
			c-0.4,1-0.5,2.2-0.5,3.6v10h-2.6V69.1z"/>
		<path class="st1" d="M187.5,65.8h-5.7v13.1c0,0.9,0.2,1.6,0.7,2.1c0.5,0.5,1.2,0.7,2,0.7c0.5,0,1-0.1,1.5-0.2
			c0.5-0.1,1-0.3,1.5-0.5l0.2,2.3c-0.5,0.2-1.1,0.3-1.7,0.5c-0.6,0.1-1.2,0.2-1.7,0.2c-0.9,0-1.7-0.1-2.4-0.4s-1.2-0.6-1.6-1.1
			c-0.4-0.5-0.7-1-0.9-1.6c-0.2-0.6-0.3-1.3-0.3-2V65.8h-4.3v-2.3h4.3v-5.8h2.6v5.8h5.7V65.8z"/>
		<path class="st1" d="M207.7,75.1c0,1,0,1.9,0,2.6c0,0.8,0,1.5,0.1,2.2c0,0.7,0.1,1.3,0.1,1.9s0.1,1.2,0.2,1.7h-2.4
			c-0.2-1-0.3-2.1-0.3-3.3h-0.1c-0.8,1.3-1.7,2.3-2.8,2.9c-1.1,0.6-2.5,0.9-4.2,0.9c-0.9,0-1.7-0.1-2.6-0.3c-0.8-0.2-1.6-0.6-2.3-1
			c-0.7-0.5-1.2-1.1-1.6-1.8c-0.4-0.8-0.6-1.7-0.6-2.7c0-1.5,0.4-2.8,1.2-3.6c0.8-0.9,1.7-1.6,2.9-2c1.1-0.4,2.4-0.7,3.6-0.9
			s2.4-0.2,3.4-0.2h3v-1.2c0-1.7-0.5-3-1.6-3.7c-1.1-0.8-2.4-1.1-4-1.1c-2.3,0-4.4,0.8-6.1,2.3l-1.5-1.8c1-0.9,2.1-1.6,3.6-2.1
			c1.4-0.5,2.8-0.7,4.1-0.7c2.4,0,4.4,0.6,5.8,1.7c1.4,1.1,2.2,3,2.2,5.5L207.7,75.1L207.7,75.1z M202.5,73.4
			c-1.1,0-2.2,0.1-3.2,0.2c-1,0.1-2,0.4-2.8,0.7c-0.8,0.3-1.5,0.8-2,1.4c-0.5,0.6-0.7,1.3-0.7,2.2c0,0.6,0.1,1.2,0.4,1.6
			c0.3,0.5,0.6,0.9,1.1,1.2c0.4,0.3,0.9,0.5,1.5,0.7c0.5,0.2,1.1,0.2,1.6,0.2c1.4,0,2.5-0.2,3.4-0.6c0.9-0.4,1.6-0.9,2.1-1.6
			c0.5-0.7,0.9-1.4,1.1-2.2c0.2-0.8,0.3-1.7,0.3-2.5v-1.3L202.5,73.4L202.5,73.4z"/>
		<path class="st1" d="M259,79.7c-1,1.5-2.3,2.6-3.8,3.3c-1.5,0.7-3.1,1-4.9,1c-1.5,0-2.9-0.3-4.2-0.8c-1.2-0.5-2.3-1.3-3.2-2.2
			c-0.9-0.9-1.6-2.1-2.1-3.3c-0.5-1.3-0.7-2.7-0.7-4.3c0-1.5,0.2-2.9,0.7-4.2c0.5-1.3,1.2-2.4,2.1-3.3c0.9-0.9,2-1.7,3.2-2.2
			c1.2-0.5,2.6-0.8,4-0.8c1.5,0,2.9,0.3,4.1,0.8c1.2,0.5,2.2,1.2,3,2.1c0.8,0.9,1.4,1.9,1.8,3c0.4,1.1,0.6,2.3,0.6,3.4v1.8h-16.9
			c0,0.6,0.1,1.3,0.3,2.1c0.2,0.9,0.6,1.7,1.2,2.5c0.6,0.8,1.4,1.5,2.3,2.1c1,0.6,2.2,0.9,3.8,0.9c1.3,0,2.6-0.3,3.9-1
			s2.2-1.5,2.9-2.6L259,79.7z M257,71.8c0-0.9-0.2-1.7-0.5-2.5s-0.9-1.5-1.5-2.1c-0.6-0.6-1.4-1.1-2.2-1.4c-0.9-0.3-1.8-0.5-2.7-0.5
			c-1.4,0-2.6,0.3-3.5,0.9c-0.9,0.6-1.7,1.2-2.2,2c-0.5,0.8-0.9,1.5-1.2,2.2s-0.3,1.2-0.3,1.5L257,71.8L257,71.8z"/>
		<path class="st1" d="M232.2,63.4v3.4h-0.1c-0.8-1.2-1.8-2.2-3.1-2.9c-1.3-0.7-2.8-1-4.5-1c-1.5,0-2.9,0.3-4.2,0.8
			c-1.3,0.6-2.4,1.3-3.4,2.2c-1,0.9-1.7,2-2.3,3.3c-0.6,1.2-0.8,2.6-0.8,4c0,1.4,0.3,2.8,0.8,4c0.6,1.2,1.3,2.3,2.3,3.3
			c1,0.9,2.1,1.7,3.4,2.2c1.3,0.5,2.7,0.8,4.2,0.8c1.7,0,3.3-0.3,4.5-1c1.3-0.7,2.3-1.6,3.1-2.9c0,0,0.1,0,0.1,0c0,0,0,0.9,0,0.9
			c0,0.2,0,0.4,0,0.6c0,0.6-0.1,1.3-0.3,1.9c-0.2,0.7-0.4,1.4-0.7,2c-0.3,0.7-0.8,1.3-1.4,1.9c-0.6,0.6-1.3,1-2.3,1.4
			c-0.9,0.3-2,0.5-3.4,0.5c-1.6,0-3-0.3-4.4-0.9s-2.5-1.6-3.5-2.9l-2,1.9c0.5,0.7,1.1,1.3,1.8,1.8c0.7,0.5,1.5,1,2.4,1.3
			c0.9,0.4,1.8,0.6,2.8,0.8c1,0.2,2,0.3,3,0.3c1,0,2.1-0.1,3.4-0.4c1.2-0.3,2.4-0.9,3.5-1.7c1.1-0.8,2-2,2.7-3.6
			c0.9-2,1.1-4.2,1.1-6.4c0-0.6,0-1.2,0-1.8c0-1.1,0-2.1,0-3.2c0-1.2,0-2.5,0-3.7c0-1.2,0-2.3,0-3.5c0-0.9,0-1.7,0-2.6
			c0-0.3,0-0.6,0-0.9L232.2,63.4L232.2,63.4z M231.7,76.3c-0.4,1-1,1.8-1.7,2.5c-0.7,0.7-1.6,1.3-2.5,1.7c-1,0.4-2,0.6-3.1,0.6
			c-1.1,0-2.1-0.2-3.1-0.6c-1-0.4-1.8-1-2.5-1.7c-0.7-0.7-1.3-1.5-1.7-2.5c-0.4-1-0.6-2-0.6-3.1c0-1.1,0.2-2.1,0.6-3.1
			c0.4-1,1-1.8,1.7-2.5c0.7-0.7,1.6-1.3,2.5-1.7c1-0.4,2-0.6,3.1-0.6c1.1,0,2.1,0.2,3.1,0.6c1,0.4,1.8,1,2.5,1.7
			c0.7,0.7,1.3,1.5,1.7,2.5c0.4,1,0.6,2,0.6,3.1C232.3,74.3,232.1,75.4,231.7,76.3z"/>
	</g>
	<g id="Slogan_1_">
		<path class="st1" d="M109.7,98.8h4.1c0.5,0,0.9,0.1,1.4,0.2c0.5,0.1,0.9,0.3,1.2,0.5c0.4,0.2,0.6,0.6,0.9,0.9s0.3,0.9,0.3,1.4
			c0,0.7-0.2,1.2-0.6,1.7c-0.4,0.5-0.9,0.8-1.5,0.9v0c0.4,0,0.7,0.1,1.1,0.3c0.3,0.2,0.6,0.4,0.9,0.6c0.2,0.2,0.4,0.5,0.6,0.9
			c0.1,0.3,0.2,0.7,0.2,1.1c0,0.6-0.1,1.1-0.4,1.5c-0.2,0.4-0.6,0.8-1,1.1c-0.4,0.3-0.9,0.5-1.4,0.6c-0.6,0.1-1.1,0.2-1.8,0.2h-4
			L109.7,98.8L109.7,98.8z M111.4,103.9h2.2c0.3,0,0.6,0,0.9-0.1c0.3-0.1,0.5-0.2,0.8-0.3c0.2-0.2,0.4-0.3,0.5-0.6
			c0.1-0.2,0.2-0.5,0.2-0.8c0-0.6-0.2-1.1-0.7-1.4c-0.5-0.3-1.1-0.4-1.9-0.4h-1.9L111.4,103.9L111.4,103.9z M111.4,109.4h2.1
			c0.4,0,0.7,0,1.1-0.1s0.7-0.2,1-0.3c0.3-0.2,0.5-0.4,0.7-0.6c0.2-0.3,0.3-0.6,0.3-1c0-0.7-0.2-1.2-0.7-1.5
			c-0.5-0.3-1.2-0.5-2.1-0.5h-2.3L111.4,109.4L111.4,109.4z"/>
		<path class="st1" d="M128.3,106.8c0,0.1,0,0.2,0,0.3s0,0.2,0,0.3h-6.4c0,0.3,0.1,0.7,0.2,1c0.1,0.3,0.3,0.6,0.6,0.8
			c0.2,0.2,0.5,0.4,0.8,0.5c0.3,0.1,0.6,0.2,1,0.2c0.5,0,1-0.1,1.4-0.4c0.4-0.2,0.7-0.5,0.9-0.9l1.1,0.9c-0.4,0.6-0.9,1-1.5,1.3
			c-0.6,0.3-1.2,0.4-1.9,0.4c-0.6,0-1.2-0.1-1.7-0.3c-0.5-0.2-1-0.5-1.3-0.9c-0.4-0.4-0.7-0.8-0.9-1.3c-0.2-0.5-0.3-1.1-0.3-1.7
			c0-0.6,0.1-1.2,0.3-1.7c0.2-0.5,0.5-1,0.9-1.4c0.4-0.4,0.8-0.7,1.3-0.9c0.5-0.2,1.1-0.3,1.7-0.3s1.1,0.1,1.6,0.3
			c0.5,0.2,0.9,0.5,1.2,0.8s0.6,0.8,0.8,1.3C128.2,105.5,128.3,106.1,128.3,106.8z M126.7,106.1c0-0.3-0.1-0.6-0.2-0.9
			c-0.1-0.3-0.2-0.5-0.4-0.7c-0.2-0.2-0.4-0.4-0.7-0.5c-0.3-0.1-0.6-0.2-1-0.2c-0.3,0-0.7,0.1-1,0.2c-0.3,0.1-0.6,0.3-0.8,0.5
			c-0.2,0.2-0.4,0.4-0.5,0.7c-0.1,0.3-0.2,0.6-0.2,0.9H126.7z"/>
		<path class="st1" d="M134.6,104.1h-2.1v4.2c0,0.5,0.1,0.8,0.3,1s0.5,0.3,0.9,0.3c0.1,0,0.3,0,0.5,0c0.2,0,0.3-0.1,0.5-0.1l0.1,1.3
			c-0.2,0.1-0.4,0.1-0.6,0.2c-0.2,0-0.5,0.1-0.7,0.1c-0.8,0-1.3-0.2-1.7-0.6s-0.6-1-0.6-1.9v-4.4h-1.5v-1.3h1.5v-2.3h1.6v2.3h2.1
			L134.6,104.1L134.6,104.1z"/>
		<path class="st1" d="M140.1,104.1H138v4.2c0,0.5,0.1,0.8,0.3,1s0.5,0.3,0.9,0.3c0.1,0,0.3,0,0.5,0c0.2,0,0.3-0.1,0.5-0.1l0.1,1.3
			c-0.2,0.1-0.4,0.1-0.6,0.2c-0.2,0-0.5,0.1-0.7,0.1c-0.8,0-1.3-0.2-1.7-0.6s-0.6-1-0.6-1.9v-4.4h-1.5v-1.3h1.5v-2.3h1.6v2.3h2.1
			L140.1,104.1L140.1,104.1z"/>
		<path class="st1" d="M149.5,106.8c0,0.1,0,0.2,0,0.3s0,0.2,0,0.3h-6.4c0,0.3,0.1,0.7,0.2,1c0.1,0.3,0.3,0.6,0.6,0.8
			c0.2,0.2,0.5,0.4,0.8,0.5c0.3,0.1,0.6,0.2,1,0.2c0.5,0,1-0.1,1.4-0.4c0.4-0.2,0.7-0.5,0.9-0.9l1.1,0.9c-0.4,0.6-0.9,1-1.5,1.3
			c-0.6,0.3-1.2,0.4-1.9,0.4c-0.6,0-1.2-0.1-1.7-0.3c-0.5-0.2-1-0.5-1.3-0.9c-0.4-0.4-0.7-0.8-0.9-1.3c-0.2-0.5-0.3-1.1-0.3-1.7
			c0-0.6,0.1-1.2,0.3-1.7c0.2-0.5,0.5-1,0.9-1.4c0.4-0.4,0.8-0.7,1.3-0.9c0.5-0.2,1.1-0.3,1.7-0.3s1.1,0.1,1.6,0.3
			c0.5,0.2,0.9,0.5,1.2,0.8c0.3,0.4,0.6,0.8,0.8,1.3C149.4,105.5,149.5,106.1,149.5,106.8z M147.9,106.1c0-0.3-0.1-0.6-0.2-0.9
			c-0.1-0.3-0.2-0.5-0.4-0.7c-0.2-0.2-0.4-0.4-0.7-0.5c-0.3-0.1-0.6-0.2-1-0.2c-0.3,0-0.7,0.1-1,0.2c-0.3,0.1-0.6,0.3-0.8,0.5
			c-0.2,0.2-0.4,0.4-0.5,0.7s-0.2,0.6-0.2,0.9H147.9z"/>
		<path class="st1" d="M151.8,103.7c0-0.3,0-0.6-0.1-0.9h1.5c0,0.2,0,0.4,0.1,0.7c0,0.3,0,0.5,0,0.7h0.1c0.2-0.5,0.6-0.9,1-1.1
			c0.4-0.3,0.9-0.4,1.5-0.4c0.2,0,0.5,0,0.6,0.1l-0.1,1.5c-0.2-0.1-0.5-0.1-0.7-0.1c-0.4,0-0.7,0.1-1,0.2c-0.3,0.1-0.5,0.3-0.7,0.6
			c-0.2,0.2-0.3,0.5-0.4,0.8s-0.1,0.6-0.1,1v4.2h-1.6v-6.3C151.9,104.3,151.9,104.1,151.8,103.7z"/>
		<path class="st1" d="M162.9,110.9H161l5.2-12h1.5l5.2,12H171l-1.2-3h-5.7L162.9,110.9z M164.7,106.4h4.5l-2.2-5.6L164.7,106.4z"/>
		<path class="st1" d="M180.2,104.9c-0.2-0.3-0.4-0.5-0.8-0.7s-0.7-0.3-1.1-0.3c-0.4,0-0.8,0.1-1.1,0.2c-0.3,0.2-0.6,0.4-0.8,0.6
			c-0.2,0.3-0.4,0.6-0.5,0.9c-0.1,0.4-0.2,0.7-0.2,1.1c0,0.4,0.1,0.8,0.2,1.1s0.3,0.7,0.5,0.9c0.2,0.3,0.5,0.5,0.8,0.6
			s0.7,0.2,1.1,0.2c0.4,0,0.8-0.1,1.1-0.2c0.3-0.2,0.6-0.4,0.8-0.6l1.1,1c-0.3,0.4-0.8,0.7-1.3,0.9c-0.5,0.2-1.1,0.3-1.7,0.3
			c-0.6,0-1.2-0.1-1.7-0.3s-1-0.5-1.4-0.9c-0.4-0.4-0.7-0.8-0.9-1.3c-0.2-0.5-0.3-1.1-0.3-1.8c0-0.6,0.1-1.2,0.3-1.7s0.5-1,0.9-1.3
			c0.4-0.4,0.8-0.7,1.4-0.9c0.5-0.2,1.1-0.3,1.7-0.3c0.6,0,1.1,0.1,1.7,0.3c0.6,0.2,1,0.6,1.3,1L180.2,104.9z"/>
		<path class="st1" d="M188.8,104.9c-0.2-0.3-0.4-0.5-0.8-0.7s-0.7-0.3-1.1-0.3c-0.4,0-0.8,0.1-1.1,0.2c-0.3,0.2-0.6,0.4-0.8,0.6
			c-0.2,0.3-0.4,0.6-0.5,0.9c-0.1,0.4-0.2,0.7-0.2,1.1c0,0.4,0.1,0.8,0.2,1.1s0.3,0.7,0.5,0.9c0.2,0.3,0.5,0.5,0.8,0.6
			s0.7,0.2,1.1,0.2c0.4,0,0.8-0.1,1.1-0.2c0.3-0.2,0.6-0.4,0.8-0.6l1.1,1c-0.3,0.4-0.8,0.7-1.3,0.9c-0.5,0.2-1.1,0.3-1.7,0.3
			c-0.6,0-1.2-0.1-1.7-0.3s-1-0.5-1.4-0.9c-0.4-0.4-0.7-0.8-0.9-1.3c-0.2-0.5-0.3-1.1-0.3-1.8c0-0.6,0.1-1.2,0.3-1.7s0.5-1,0.9-1.3
			c0.4-0.4,0.8-0.7,1.4-0.9c0.5-0.2,1.1-0.3,1.7-0.3c0.6,0,1.1,0.1,1.7,0.3c0.6,0.2,1,0.6,1.3,1L188.8,104.9z"/>
		<path class="st1" d="M199.3,106.8c0,0.1,0,0.2,0,0.3s0,0.2,0,0.3h-6.4c0,0.3,0.1,0.7,0.2,1c0.1,0.3,0.3,0.6,0.6,0.8
			c0.2,0.2,0.5,0.4,0.8,0.5c0.3,0.1,0.6,0.2,1,0.2c0.5,0,1-0.1,1.4-0.4c0.4-0.2,0.7-0.5,0.9-0.9l1.1,0.9c-0.4,0.6-0.9,1-1.5,1.3
			s-1.2,0.4-1.9,0.4c-0.6,0-1.2-0.1-1.7-0.3s-1-0.5-1.3-0.9c-0.4-0.4-0.7-0.8-0.9-1.3c-0.2-0.5-0.3-1.1-0.3-1.7
			c0-0.6,0.1-1.2,0.3-1.7c0.2-0.5,0.5-1,0.9-1.4c0.4-0.4,0.8-0.7,1.3-0.9c0.5-0.2,1.1-0.3,1.7-0.3s1.1,0.1,1.6,0.3
			c0.5,0.2,0.9,0.5,1.2,0.8c0.3,0.4,0.6,0.8,0.8,1.3C199.2,105.5,199.3,106.1,199.3,106.8z M197.6,106.1c0-0.3-0.1-0.6-0.2-0.9
			c-0.1-0.3-0.2-0.5-0.4-0.7c-0.2-0.2-0.4-0.4-0.7-0.5c-0.3-0.1-0.6-0.2-1-0.2c-0.3,0-0.7,0.1-1,0.2c-0.3,0.1-0.6,0.3-0.8,0.5
			c-0.2,0.2-0.4,0.4-0.5,0.7c-0.1,0.3-0.2,0.6-0.2,0.9H197.6z"/>
		<path class="st1" d="M206,104.9c-0.2-0.3-0.4-0.5-0.8-0.7s-0.7-0.3-1.1-0.3c-0.2,0-0.4,0-0.5,0.1c-0.2,0-0.3,0.1-0.5,0.2
			c-0.1,0.1-0.3,0.2-0.3,0.3c-0.1,0.1-0.1,0.3-0.1,0.5c0,0.3,0.2,0.6,0.5,0.8s0.8,0.3,1.4,0.5c0.4,0.1,0.7,0.2,1.1,0.3
			s0.6,0.3,0.9,0.5c0.2,0.2,0.4,0.4,0.6,0.7c0.1,0.3,0.2,0.6,0.2,0.9c0,0.5-0.1,0.9-0.3,1.2s-0.4,0.6-0.7,0.8
			c-0.3,0.2-0.6,0.4-1,0.5c-0.4,0.1-0.8,0.1-1.2,0.1c-0.6,0-1.2-0.1-1.8-0.4c-0.6-0.2-1.1-0.6-1.5-1.1l1.1-1
			c0.2,0.3,0.5,0.6,0.9,0.8s0.8,0.3,1.3,0.3c0.2,0,0.4,0,0.6-0.1c0.2,0,0.4-0.1,0.5-0.2c0.2-0.1,0.3-0.2,0.4-0.4
			c0.1-0.1,0.1-0.3,0.1-0.6c0-0.4-0.2-0.7-0.5-0.8c-0.4-0.2-0.9-0.4-1.6-0.5c-0.3-0.1-0.5-0.1-0.8-0.2c-0.3-0.1-0.5-0.2-0.8-0.4
			c-0.2-0.2-0.4-0.4-0.6-0.6c-0.1-0.3-0.2-0.6-0.2-0.9c0-0.4,0.1-0.8,0.3-1.1c0.2-0.3,0.4-0.6,0.7-0.8c0.3-0.2,0.6-0.3,1-0.4
			c0.4-0.1,0.7-0.1,1.1-0.1c0.6,0,1.1,0.1,1.7,0.3c0.5,0.2,1,0.6,1.3,1L206,104.9z"/>
		<path class="st1" d="M213.7,104.9c-0.2-0.3-0.4-0.5-0.8-0.7s-0.7-0.3-1.1-0.3c-0.2,0-0.4,0-0.5,0.1c-0.2,0-0.3,0.1-0.5,0.2
			c-0.1,0.1-0.3,0.2-0.3,0.3c-0.1,0.1-0.1,0.3-0.1,0.5c0,0.3,0.2,0.6,0.5,0.8s0.8,0.3,1.4,0.5c0.4,0.1,0.7,0.2,1.1,0.3
			s0.6,0.3,0.9,0.5c0.2,0.2,0.4,0.4,0.6,0.7c0.1,0.3,0.2,0.6,0.2,0.9c0,0.5-0.1,0.9-0.3,1.2s-0.4,0.6-0.7,0.8
			c-0.3,0.2-0.6,0.4-1,0.5s-0.8,0.1-1.2,0.1c-0.6,0-1.2-0.1-1.8-0.4c-0.6-0.2-1.1-0.6-1.5-1.1l1.1-1c0.2,0.3,0.5,0.6,0.9,0.8
			s0.8,0.3,1.3,0.3c0.2,0,0.4,0,0.6-0.1c0.2,0,0.4-0.1,0.5-0.2c0.2-0.1,0.3-0.2,0.4-0.4c0.1-0.1,0.1-0.3,0.1-0.6
			c0-0.4-0.2-0.7-0.5-0.8c-0.4-0.2-0.9-0.4-1.6-0.5c-0.3-0.1-0.5-0.1-0.8-0.2c-0.3-0.1-0.5-0.2-0.8-0.4c-0.2-0.2-0.4-0.4-0.6-0.6
			c-0.1-0.3-0.2-0.6-0.2-0.9c0-0.4,0.1-0.8,0.3-1.1c0.2-0.3,0.4-0.6,0.7-0.8c0.3-0.2,0.6-0.3,1-0.4c0.4-0.1,0.7-0.1,1.1-0.1
			c0.6,0,1.1,0.1,1.7,0.3c0.5,0.2,1,0.6,1.3,1L213.7,104.9z"/>
		<path class="st1" d="M219.1,109.9c0,0.3-0.1,0.6-0.3,0.8c-0.2,0.2-0.5,0.3-0.8,0.3c-0.3,0-0.6-0.1-0.8-0.3
			c-0.2-0.2-0.3-0.5-0.3-0.8c0-0.3,0.1-0.6,0.3-0.8s0.5-0.3,0.8-0.3s0.6,0.1,0.8,0.3C218.9,109.3,219.1,109.5,219.1,109.9z"/>
		<path class="st1" d="M225.7,98.8h4.1c0.5,0,0.9,0.1,1.4,0.2c0.5,0.1,0.9,0.3,1.2,0.5c0.4,0.2,0.6,0.6,0.9,0.9
			c0.2,0.4,0.3,0.9,0.3,1.4c0,0.7-0.2,1.2-0.6,1.7c-0.4,0.5-0.9,0.8-1.5,0.9v0c0.4,0,0.7,0.1,1.1,0.3s0.6,0.4,0.9,0.6
			c0.2,0.2,0.4,0.5,0.6,0.9c0.1,0.3,0.2,0.7,0.2,1.1c0,0.6-0.1,1.1-0.4,1.5c-0.2,0.4-0.6,0.8-1,1.1c-0.4,0.3-0.9,0.5-1.4,0.6
			c-0.6,0.1-1.1,0.2-1.8,0.2h-4L225.7,98.8L225.7,98.8z M227.4,103.9h2.2c0.3,0,0.6,0,0.9-0.1c0.3-0.1,0.5-0.2,0.8-0.3
			c0.2-0.2,0.4-0.3,0.5-0.6c0.1-0.2,0.2-0.5,0.2-0.8c0-0.6-0.2-1.1-0.7-1.4c-0.5-0.3-1.1-0.4-1.9-0.4h-1.9L227.4,103.9L227.4,103.9z
			 M227.4,109.4h2.1c0.4,0,0.7,0,1.1-0.1c0.4-0.1,0.7-0.2,1-0.3c0.3-0.2,0.5-0.4,0.7-0.6c0.2-0.3,0.3-0.6,0.3-1
			c0-0.7-0.2-1.2-0.7-1.5c-0.5-0.3-1.2-0.5-2.1-0.5h-2.3L227.4,109.4L227.4,109.4z"/>
		<path class="st1" d="M244.2,106.8c0,0.1,0,0.2,0,0.3s0,0.2,0,0.3h-6.4c0,0.3,0.1,0.7,0.2,1c0.1,0.3,0.3,0.6,0.6,0.8
			c0.2,0.2,0.5,0.4,0.8,0.5c0.3,0.1,0.6,0.2,1,0.2c0.5,0,1-0.1,1.4-0.4c0.4-0.2,0.7-0.5,0.9-0.9l1.1,0.9c-0.4,0.6-0.9,1-1.5,1.3
			s-1.2,0.4-1.9,0.4c-0.6,0-1.2-0.1-1.7-0.3s-1-0.5-1.3-0.9c-0.4-0.4-0.7-0.8-0.9-1.3c-0.2-0.5-0.3-1.1-0.3-1.7
			c0-0.6,0.1-1.2,0.3-1.7c0.2-0.5,0.5-1,0.9-1.4c0.4-0.4,0.8-0.7,1.3-0.9c0.5-0.2,1.1-0.3,1.7-0.3s1.1,0.1,1.6,0.3s0.9,0.5,1.2,0.8
			s0.6,0.8,0.8,1.3C244.1,105.5,244.2,106.1,244.2,106.8z M242.6,106.1c0-0.3-0.1-0.6-0.2-0.9c-0.1-0.3-0.2-0.5-0.4-0.7
			c-0.2-0.2-0.4-0.4-0.7-0.5c-0.3-0.1-0.6-0.2-1-0.2c-0.3,0-0.7,0.1-1,0.2c-0.3,0.1-0.6,0.3-0.8,0.5c-0.2,0.2-0.4,0.4-0.5,0.7
			s-0.2,0.6-0.2,0.9H242.6z"/>
		<path class="st1" d="M250.5,104.1h-2.1v4.2c0,0.5,0.1,0.8,0.3,1s0.5,0.3,0.9,0.3c0.1,0,0.3,0,0.5,0c0.2,0,0.3-0.1,0.5-0.1l0.1,1.3
			c-0.2,0.1-0.4,0.1-0.6,0.2c-0.2,0-0.5,0.1-0.7,0.1c-0.8,0-1.3-0.2-1.7-0.6c-0.4-0.4-0.6-1-0.6-1.9v-4.4h-1.5v-1.3h1.5v-2.3h1.6
			v2.3h2.1V104.1z"/>
		<path class="st1" d="M256,104.1h-2.1v4.2c0,0.5,0.1,0.8,0.3,1s0.5,0.3,0.9,0.3c0.1,0,0.3,0,0.5,0c0.2,0,0.3-0.1,0.5-0.1l0.1,1.3
			c-0.2,0.1-0.4,0.1-0.6,0.2c-0.2,0-0.5,0.1-0.7,0.1c-0.8,0-1.3-0.2-1.7-0.6c-0.4-0.4-0.6-1-0.6-1.9v-4.4h-1.5v-1.3h1.5v-2.3h1.6
			v2.3h2.1V104.1z"/>
		<path class="st1" d="M265.4,106.8c0,0.1,0,0.2,0,0.3s0,0.2,0,0.3H259c0,0.3,0.1,0.7,0.2,1c0.1,0.3,0.3,0.6,0.6,0.8
			c0.2,0.2,0.5,0.4,0.8,0.5c0.3,0.1,0.6,0.2,1,0.2c0.5,0,1-0.1,1.4-0.4c0.4-0.2,0.7-0.5,0.9-0.9l1.1,0.9c-0.4,0.6-0.9,1-1.5,1.3
			s-1.2,0.4-1.9,0.4c-0.6,0-1.2-0.1-1.7-0.3s-1-0.5-1.3-0.9c-0.4-0.4-0.7-0.8-0.9-1.3c-0.2-0.5-0.3-1.1-0.3-1.7
			c0-0.6,0.1-1.2,0.3-1.7c0.2-0.5,0.5-1,0.9-1.4c0.4-0.4,0.8-0.7,1.3-0.9c0.5-0.2,1.1-0.3,1.7-0.3s1.1,0.1,1.6,0.3s0.9,0.5,1.2,0.8
			s0.6,0.8,0.8,1.3C265.3,105.5,265.4,106.1,265.4,106.8z M263.8,106.1c0-0.3-0.1-0.6-0.2-0.9c-0.1-0.3-0.2-0.5-0.4-0.7
			c-0.2-0.2-0.4-0.4-0.7-0.5c-0.3-0.1-0.6-0.2-1-0.2c-0.3,0-0.7,0.1-1,0.2c-0.3,0.1-0.6,0.3-0.8,0.5c-0.2,0.2-0.4,0.4-0.5,0.7
			s-0.2,0.6-0.2,0.9H263.8z"/>
		<path class="st1" d="M267.8,103.7c0-0.3,0-0.6-0.1-0.9h1.5c0,0.2,0,0.4,0.1,0.7c0,0.3,0,0.5,0,0.7h0.1c0.2-0.5,0.6-0.9,1-1.1
			c0.4-0.3,0.9-0.4,1.5-0.4c0.2,0,0.5,0,0.6,0.1l-0.1,1.5c-0.2-0.1-0.5-0.1-0.7-0.1c-0.4,0-0.7,0.1-1,0.2c-0.3,0.1-0.5,0.3-0.7,0.6
			c-0.2,0.2-0.3,0.5-0.4,0.8c-0.1,0.3-0.1,0.6-0.1,1v4.2h-1.6v-6.3C267.8,104.3,267.8,104.1,267.8,103.7z"/>
		<path class="st1" d="M290.8,104.8c0,0.9-0.2,1.8-0.5,2.6s-0.8,1.4-1.3,2c-0.6,0.6-1.2,1-2,1.3c-0.8,0.3-1.6,0.5-2.6,0.5
			s-1.8-0.2-2.5-0.5s-1.4-0.7-2-1.3c-0.6-0.6-1-1.2-1.3-2c-0.3-0.8-0.5-1.6-0.5-2.6c0-0.9,0.2-1.8,0.5-2.6c0.3-0.8,0.8-1.4,1.3-2
			c0.6-0.5,1.2-1,2-1.3c0.8-0.3,1.6-0.5,2.5-0.5s1.8,0.2,2.6,0.5s1.5,0.7,2,1.3s1,1.2,1.3,2S290.8,103.9,290.8,104.8z M288.9,104.8
			c0-0.7-0.1-1.3-0.3-1.9c-0.2-0.6-0.5-1.1-0.9-1.5c-0.4-0.4-0.9-0.8-1.4-1s-1.2-0.4-1.9-0.4c-0.7,0-1.3,0.1-1.9,0.4
			c-0.6,0.3-1,0.6-1.4,1c-0.4,0.4-0.7,1-0.9,1.5c-0.2,0.6-0.3,1.2-0.3,1.9c0,0.7,0.1,1.3,0.3,1.9c0.2,0.6,0.5,1.1,0.9,1.5
			c0.4,0.4,0.9,0.8,1.4,1c0.6,0.2,1.2,0.4,1.9,0.4s1.3-0.1,1.9-0.4s1-0.6,1.4-1c0.4-0.4,0.7-0.9,0.9-1.5
			C288.8,106.1,288.9,105.5,288.9,104.8z"/>
		<path class="st1" d="M298.8,110.9c0-0.2,0-0.4-0.1-0.7c0-0.3,0-0.5,0-0.6h0c-0.2,0.4-0.5,0.8-1,1.1c-0.5,0.3-1,0.5-1.6,0.5
			c-0.5,0-1-0.1-1.4-0.3s-0.7-0.4-0.9-0.7c-0.2-0.3-0.4-0.6-0.5-1s-0.2-0.8-0.2-1.3v-5h1.6v4.5c0,0.3,0,0.6,0.1,0.9s0.1,0.6,0.3,0.8
			s0.3,0.4,0.6,0.5c0.2,0.1,0.5,0.2,0.9,0.2c0.6,0,1.2-0.2,1.6-0.7c0.4-0.5,0.6-1.1,0.6-1.9v-4.3h1.6v6.3c0,0.2,0,0.5,0,0.8
			c0,0.3,0,0.6,0.1,0.9H298.8z"/>
		<path class="st1" d="M307.2,104.1H305v4.2c0,0.5,0.1,0.8,0.3,1s0.5,0.3,0.9,0.3c0.1,0,0.3,0,0.5,0c0.2,0,0.3-0.1,0.5-0.1l0.1,1.3
			c-0.2,0.1-0.4,0.1-0.6,0.2c-0.2,0-0.5,0.1-0.7,0.1c-0.8,0-1.3-0.2-1.7-0.6c-0.4-0.4-0.6-1-0.6-1.9v-4.4h-1.5v-1.3h1.5v-2.3h1.6
			v2.3h2.1V104.1z"/>
		<path class="st1" d="M314.6,104.9c-0.2-0.3-0.4-0.5-0.8-0.7c-0.3-0.2-0.7-0.3-1.1-0.3c-0.4,0-0.8,0.1-1.1,0.2
			c-0.3,0.2-0.6,0.4-0.8,0.6c-0.2,0.3-0.4,0.6-0.5,0.9c-0.1,0.4-0.2,0.7-0.2,1.1c0,0.4,0.1,0.8,0.2,1.1s0.3,0.7,0.5,0.9
			c0.2,0.3,0.5,0.5,0.8,0.6s0.7,0.2,1.1,0.2c0.4,0,0.8-0.1,1.1-0.2c0.3-0.2,0.6-0.4,0.8-0.6l1.1,1c-0.3,0.4-0.8,0.7-1.3,0.9
			c-0.5,0.2-1.1,0.3-1.7,0.3c-0.6,0-1.2-0.1-1.7-0.3s-1-0.5-1.4-0.9c-0.4-0.4-0.7-0.8-0.9-1.3c-0.2-0.5-0.3-1.1-0.3-1.8
			c0-0.6,0.1-1.2,0.3-1.7s0.5-1,0.9-1.3c0.4-0.4,0.8-0.7,1.4-0.9c0.5-0.2,1.1-0.3,1.7-0.3c0.6,0,1.1,0.1,1.7,0.3
			c0.6,0.2,1,0.6,1.3,1L314.6,104.9z"/>
		<path class="st1" d="M325.7,106.8c0,0.6-0.1,1.2-0.3,1.7c-0.2,0.5-0.5,1-0.9,1.4c-0.4,0.4-0.9,0.7-1.4,0.9
			c-0.5,0.2-1.1,0.3-1.7,0.3s-1.2-0.1-1.7-0.3c-0.5-0.2-1-0.5-1.4-0.9c-0.4-0.4-0.7-0.8-0.9-1.4c-0.2-0.5-0.3-1.1-0.3-1.7
			c0-0.6,0.1-1.2,0.3-1.7s0.5-1,0.9-1.3c0.4-0.4,0.8-0.7,1.4-0.9c0.5-0.2,1.1-0.3,1.7-0.3s1.2,0.1,1.7,0.3s1,0.5,1.4,0.9
			c0.4,0.4,0.7,0.8,0.9,1.3C325.6,105.6,325.7,106.2,325.7,106.8z M324.1,106.8c0-0.4-0.1-0.8-0.2-1.1s-0.3-0.7-0.5-0.9
			c-0.2-0.3-0.5-0.5-0.8-0.6c-0.3-0.2-0.7-0.2-1.2-0.2c-0.4,0-0.8,0.1-1.2,0.2c-0.3,0.2-0.6,0.4-0.8,0.6c-0.2,0.3-0.4,0.6-0.5,0.9
			c-0.1,0.4-0.2,0.7-0.2,1.1c0,0.4,0.1,0.8,0.2,1.1c0.1,0.4,0.3,0.7,0.5,0.9s0.5,0.5,0.8,0.6c0.3,0.2,0.7,0.2,1.2,0.2
			c0.4,0,0.8-0.1,1.2-0.2s0.6-0.4,0.8-0.6c0.2-0.3,0.4-0.6,0.5-0.9C324,107.6,324.1,107.2,324.1,106.8z"/>
		<path class="st1" d="M330.6,103c0.4-0.3,1-0.5,1.6-0.5c0.5,0,1,0.1,1.5,0.4c0.4,0.2,0.8,0.7,1,1.2c0.3-0.5,0.7-0.9,1.1-1.2
			c0.5-0.3,1-0.4,1.6-0.4c0.5,0,1,0.1,1.3,0.3c0.4,0.2,0.7,0.4,0.9,0.7c0.2,0.3,0.4,0.6,0.6,1c0.1,0.4,0.2,0.8,0.2,1.3v5h-1.6v-4.5
			c0-0.3,0-0.6-0.1-0.9c-0.1-0.3-0.2-0.6-0.3-0.8c-0.1-0.2-0.3-0.4-0.5-0.5c-0.2-0.1-0.5-0.2-0.9-0.2c-0.4,0-0.7,0.1-0.9,0.2
			c-0.3,0.2-0.5,0.4-0.6,0.6c-0.2,0.2-0.3,0.5-0.4,0.8c-0.1,0.3-0.1,0.6-0.1,0.9v4.4h-1.6v-4.8c0-0.3,0-0.6-0.1-0.9
			c-0.1-0.3-0.2-0.5-0.3-0.7c-0.1-0.2-0.3-0.3-0.5-0.4c-0.2-0.1-0.5-0.2-0.8-0.2c-0.6,0-1.1,0.2-1.5,0.7c-0.4,0.5-0.6,1.1-0.6,1.9
			v4.3h-1.6v-6.3c0-0.2,0-0.5,0-0.8c0-0.3,0-0.6-0.1-0.9h1.5c0,0.2,0,0.4,0.1,0.7c0,0.3,0,0.5,0,0.6h0.1
			C329.9,103.7,330.2,103.3,330.6,103z"/>
		<path class="st1" d="M350.9,106.8c0,0.1,0,0.2,0,0.3s0,0.2,0,0.3h-6.4c0,0.3,0.1,0.7,0.2,1c0.1,0.3,0.3,0.6,0.6,0.8
			c0.2,0.2,0.5,0.4,0.8,0.5c0.3,0.1,0.6,0.2,1,0.2c0.5,0,1-0.1,1.4-0.4c0.4-0.2,0.7-0.5,0.9-0.9l1.1,0.9c-0.4,0.6-0.9,1-1.5,1.3
			s-1.2,0.4-1.9,0.4c-0.6,0-1.2-0.1-1.7-0.3s-1-0.5-1.3-0.9c-0.4-0.4-0.7-0.8-0.9-1.3c-0.2-0.5-0.3-1.1-0.3-1.7
			c0-0.6,0.1-1.2,0.3-1.7c0.2-0.5,0.5-1,0.9-1.4c0.4-0.4,0.8-0.7,1.3-0.9c0.5-0.2,1.1-0.3,1.7-0.3s1.1,0.1,1.6,0.3s0.9,0.5,1.2,0.8
			s0.6,0.8,0.8,1.3C350.8,105.5,350.9,106.1,350.9,106.8z M349.3,106.1c0-0.3-0.1-0.6-0.2-0.9c-0.1-0.3-0.2-0.5-0.4-0.7
			c-0.2-0.2-0.4-0.4-0.7-0.5c-0.3-0.1-0.6-0.2-1-0.2c-0.3,0-0.7,0.1-1,0.2c-0.3,0.1-0.6,0.3-0.8,0.5c-0.2,0.2-0.4,0.4-0.5,0.7
			s-0.2,0.6-0.2,0.9H349.3z"/>
		<path class="st1" d="M357.6,104.9c-0.2-0.3-0.4-0.5-0.8-0.7c-0.3-0.2-0.7-0.3-1.1-0.3c-0.2,0-0.4,0-0.5,0.1
			c-0.2,0-0.3,0.1-0.5,0.2c-0.1,0.1-0.3,0.2-0.3,0.3s-0.1,0.3-0.1,0.5c0,0.3,0.2,0.6,0.5,0.8s0.8,0.3,1.4,0.5
			c0.4,0.1,0.7,0.2,1.1,0.3s0.6,0.3,0.9,0.5s0.4,0.4,0.6,0.7c0.1,0.3,0.2,0.6,0.2,0.9c0,0.5-0.1,0.9-0.3,1.2s-0.4,0.6-0.7,0.8
			c-0.3,0.2-0.6,0.4-1,0.5s-0.8,0.1-1.2,0.1c-0.6,0-1.2-0.1-1.8-0.4c-0.6-0.2-1.1-0.6-1.5-1.1l1.1-1c0.2,0.3,0.5,0.6,0.9,0.8
			s0.8,0.3,1.3,0.3c0.2,0,0.4,0,0.6-0.1c0.2,0,0.4-0.1,0.5-0.2c0.2-0.1,0.3-0.2,0.4-0.4c0.1-0.1,0.1-0.3,0.1-0.6
			c0-0.4-0.2-0.7-0.5-0.8c-0.4-0.2-0.9-0.4-1.6-0.5c-0.3-0.1-0.5-0.1-0.8-0.2c-0.3-0.1-0.5-0.2-0.8-0.4c-0.2-0.2-0.4-0.4-0.6-0.6
			c-0.1-0.3-0.2-0.6-0.2-0.9c0-0.4,0.1-0.8,0.3-1.1s0.4-0.6,0.7-0.8c0.3-0.2,0.6-0.3,1-0.4c0.4-0.1,0.7-0.1,1.1-0.1
			c0.6,0,1.1,0.1,1.7,0.3s1,0.6,1.3,1L357.6,104.9z"/>
		<path class="st1" d="M363,109.9c0,0.3-0.1,0.6-0.3,0.8c-0.2,0.2-0.5,0.3-0.8,0.3c-0.3,0-0.6-0.1-0.8-0.3c-0.2-0.2-0.3-0.5-0.3-0.8
			c0-0.3,0.1-0.6,0.3-0.8s0.5-0.3,0.8-0.3s0.6,0.1,0.8,0.3C362.9,109.3,363,109.5,363,109.9z"/>
	</g>
	<g id="Lighthouse_1_">
		<path id="L3_1_" class="st1" d="M15.8,84.7c-4.9,4.2-8.7,9.1-11.5,15c-1.4,2.9-2.4,6-3.2,9.2c-0.4,1.6-0.6,3.2-0.8,4.8
			c-0.1,0.8-0.2,1.7-0.2,2.5C0,117.4,0,118.3,0,118.3C8.5,105.2,22,96,36.8,90.8l-2-17C27.8,76.2,21.4,79.9,15.8,84.7z"/>
		<path id="L2_1_" class="st0" d="M16.5,61.8c-4.1,3.4-7.2,7.5-9.5,12.4c-1.1,2.4-2,5-2.6,7.6c-0.3,1.3-0.5,2.6-0.7,4
			c-0.1,0.7-0.2,1.4-0.2,2.1c0,1-0.1,1.8-0.1,1.8c7-10.8,18.2-18.4,30.4-22.8l-1.7-14.1C26.5,54.8,21.2,57.9,16.5,61.8z"/>
		<path id="L1_1_" class="st1" d="M34.1,45.6l-0.8-6.5h-2.7h-9.1H6.7L6,45.5c0,0,2.5,0.1,2.3,2.3c-0.1,1.4-1.4,11.9-1.7,15
			c0,0,0,0,0,0.1c0,0.1,0,0.2,0,0.2c0,0,0,0,0,0c0,0.2,0,0.4,0,0.6c0,0.8-0.1,1.5-0.1,1.5c5.1-7.9,12.9-13.7,21.6-17.4
			c0.9-0.4,1.8-0.7,2.7-1C32.4,46.2,32.4,46.2,34.1,45.6z"/>
		<path id="Light_1_" class="st2" d="M29.6,30.4c0,0-3-1.2-9.6-1.2s-9.6,1.2-9.6,1.2l-0.9,7.3H20h10.5L29.6,30.4z"/>
		<path id="Top_1_" class="st1" d="M32.9,25.5c-0.7-4.4-5.9-7.9-12.4-8.1L20.3,0H20h-0.3l-0.2,17.4C13,17.6,7.8,21.1,7.1,25.5
			c-3,0.9-4.8,2.1-4.8,3.4c0,1.6,2.9,3.1,7.3,4c-1.4-0.6-2.2-1.3-2.2-2.1c0-2,5.7-3.6,12.6-3.6s12.6,1.6,12.6,3.6
			c0,0.8-0.9,1.5-2.3,2.1c4.6-0.9,7.5-2.4,7.5-4C37.7,27.6,35.9,26.4,32.9,25.5z"/>
	</g>
	
		<linearGradient id="LightBeam_2_" gradientUnits="userSpaceOnUse" x1="363.013" y1="85.9945" x2="30.655" y2="85.9945" gradientTransform="matrix(1 0 0 -1 0 120)">
		<stop  offset="0" style="stop-color:#FFFFFF;stop-opacity:0"/>
		<stop  offset="5.550000e-02" style="stop-color:#DFECF7;stop-opacity:5.550000e-02"/>
		<stop  offset="0.1278" style="stop-color:#BDD8EE;stop-opacity:0.1278"/>
		<stop  offset="0.208" style="stop-color:#A0C6E7;stop-opacity:0.208"/>
		<stop  offset="0.2964" style="stop-color:#88B8E0;stop-opacity:0.2964"/>
		<stop  offset="0.3965" style="stop-color:#76ADDC;stop-opacity:0.3965"/>
		<stop  offset="0.5151" style="stop-color:#69A6D8;stop-opacity:0.5151"/>
		<stop  offset="0.6702" style="stop-color:#61A1D7;stop-opacity:0.6702"/>
		<stop  offset="1" style="stop-color:#5FA0D6"/>
	</linearGradient>
	<polygon id="LightBeam_1_" class="st3" points="363,39.9 31,36.3 30.7,34.2 363,28.1 	"/>
</g>
</svg>
